<svg xmlns="http://www.w3.org/2000/svg" viewBox="0 0 24 24">
  <path d="M23.72 20.04 14.06 1.33A2.23 2.23 0 0 0 12.01 0a2.25 2.25 0 0 0-2.05 1.33L.31 20.04a2.99 2.99 0 0 0 0 2.64 2.4 2.4 0 0 0 2 1.32h19.3a2.42 2.42 0 0 0 2.06-1.32 2.99 2.99 0 0 0 .05-2.64Zm-11.76.74a1.57 1.57 0 0 1-1.46-.94 1.55 1.55 0 0 1 1.11-2.14 1.58 1.58 0 0 1 1.62.64 1.55 1.55 0 0 1-1.27 2.44Zm0-4.8a1.58 1.58 0 0 1-1.43-.98c-.08-.19-.11-.4-.11-.6V8a.72.72 0 0 1 .43-.73c.1-.05.2-.07.3-.07h1.63a.73.73 0 0 1 .68.47c.03.09.05.18.05.28v6.45a1.56 1.56 0 0 1-1.55 1.56V16Z"/>
</svg>