<svg xmlns="http://www.w3.org/2000/svg" viewBox="0 0 24 24">
    <path d="M20.4 24h1.2v-2.4h-1.2v-1.2a8.42 8.42 0 0 0-4.12-7.22 1.28 1.28 0 0 1-.68-1.09v-.18c0-.43.25-.83.68-1.08A8.42 8.42 0 0 0 20.4 3.6V2.4h1.2V0H2.4v2.4h1.2v1.2a8.42 8.42 0 0 0 4.12 7.23c.43.25.68.65.68 1.08v.18c0 .43-.25.83-.68 1.08A8.42 8.42 0 0 0 3.6 20.4v1.2H2.4V24h18ZM18 2.4v1.2a6 6 0 0 1-1.2 3.6H7.2A6 6 0 0 1 6 3.6V2.4h12ZM8.94 15.24a3.66 3.66 0 0 0 1.86-3.15V12h2.4v.1c0 1.28.7 2.45 1.86 3.14A5.98 5.98 0 0 1 17.5 18H6.5a5.97 5.97 0 0 1 2.43-2.76Z"/>
</svg>