<svg xmlns="http://www.w3.org/2000/svg" fill="none" viewBox="0 0 111 26"><g fill="#fff" clip-path="url(#a)" opacity=".9"><g clip-path="url(#b)"><path d="M25.74 8.35v3.5H19.1c-1.02 0-2 .36-2.78 1.01l-4.16 3.5A7.02 7.02 0 0 1 7.66 18H.74v-3.5l6.63.01c1.01 0 2-.36 2.78-1.01L14.3 10a7.01 7.01 0 0 1 4.5-1.65h6.93Zm0 6.16v3.5h-4.67c-.84 0-1.65.29-2.3.83l-5.74 4.83V19.1l4.01-3.37a5.23 5.23 0 0 1 3.37-1.23h5.33ZM13.45 2.68v4.57l-4.01 3.37a5.24 5.24 0 0 1-3.37 1.23H.74v-3.5H5.4c.83 0 1.65-.3 2.29-.83l5.75-4.84Z"/></g><g clip-path="url(#c)"><path d="M106.1 15.3a4.41 4.41 0 0 0 1.96-3.66V9.79a4.42 4.42 0 0 0-4.41-4.43h-6.69v15.55h3.25v-4.8h2.7l2.15 4.8h3.45l-2.4-5.6Zm-1.15-3.93c0 1-.82 1.82-1.83 1.82h-2.92V8.33h2.92c1 0 1.83.82 1.83 1.83v1.2ZM91.83 5.03c-.29-.06-.58-.1-.88-.1h-2.53a4.2 4.2 0 0 0-4.12 4.18v8a4.2 4.2 0 0 0 4.12 4.17h2.53a4.2 4.2 0 0 0 4.17-4.17v-8a4.2 4.2 0 0 0-3.3-4.08Zm.1 11.78c0 .88-.71 1.6-1.6 1.6H89.1a1.6 1.6 0 0 1-1.6-1.6V9.4c0-.89.71-1.6 1.6-1.6h1.24c.89 0 1.6.71 1.6 1.6v7.4Zm-10.41-3.92a4.4 4.4 0 0 0-3.11-7.52h-6.53V20.9h6.53c2.42 0 4.4-2 4.4-4.44v-.19c0-1.23-.52-2.42-1.43-3.26l.14-.13Zm-6.62-4.7h3.14a1.76 1.76 0 0 1 0 3.52H74.9V8.19Zm3.14 9.78H74.9v-3.52h3.14a1.76 1.76 0 0 1 0 3.52ZM67.96 15.3a4.41 4.41 0 0 0 1.96-3.66V9.79a4.42 4.42 0 0 0-4.42-4.43h-6.68v15.55h3.24v-4.8h2.7l2.15 4.8h3.46l-2.4-5.6Zm-1.16-3.93c0 1-.82 1.82-1.83 1.82h-2.91V8.33h2.91c1.01 0 1.83.82 1.83 1.83v1.2ZM52.62 4.95h-2.69a4.18 4.18 0 0 0-4.17 4.18v11.78h3.35v-4.79h4.34v4.79h3.34V9.13c0-2.3-1.87-4.18-4.17-4.18Zm.83 8.24H49.1V9.6c0-.83.68-1.52 1.52-1.52h1.3c.84 0 1.52.69 1.52 1.53v3.6ZM43.34 5.36v15.55h-3.35v-4.79h-4.34v4.79h-3.34V5.36h3.34v7.84H40V5.36h3.35Z"/></g></g><defs><clipPath id="a"><path fill="#fff" d="M.74.8h110v25.05H.74z"/></clipPath><clipPath id="b"><path fill="#fff" d="M.74.8h25v25.05h-25z"/></clipPath><clipPath id="c"><path fill="#fff" d="M31.99 4.56h76.88v17.11H31.99z"/></clipPath></defs></svg>